ISO-10303-21;
HEADER;
/* Generated by software containing ST-Developer
 * from STEP Tools, Inc. (www.steptools.com) 
 */

FILE_DESCRIPTION(
/* description */ (''),
/* implementation_level */ '2;1');

FILE_NAME(
/* name */ 'Main_Body.step',
/* time_stamp */ '2026-08-18T23:12:52+08:00',
/* author */ (''),
/* organization */ (''),
/* preprocessor_version */ 'ST-DEVELOPER v20.1',
/* originating_system */ 'Autodesk Translation Framework v15.8.0.0',
/* authorisation */ '');

FILE_SCHEMA (('AUTOMOTIVE_DESIGN { 1 0 10303 214 3 1 1 }'));
ENDSEC;

DATA;
#10=MECHANICAL_DESIGN_GEOMETRIC_PRESENTATION_REPRESENTATION('',(#13),#897);
#11=SHAPE_REPRESENTATION_RELATIONSHIP('SRR','None',#904,#12);
#12=ADVANCED_BREP_SHAPE_REPRESENTATION('',(#14),#896);
#13=STYLED_ITEM('',(#914),#14);
#14=MANIFOLD_SOLID_BREP('Body1',#529);
#15=FACE_BOUND('',#95,.T.);
#16=FACE_BOUND('',#96,.T.);
#17=FACE_BOUND('',#97,.T.);
#18=FACE_BOUND('',#98,.T.);
#19=FACE_BOUND('',#99,.T.);
#20=FACE_BOUND('',#101,.T.);
#21=FACE_BOUND('',#112,.T.);
#22=FACE_BOUND('',#123,.T.);
#23=FACE_BOUND('',#124,.T.);
#24=FACE_BOUND('',#125,.T.);
#25=FACE_BOUND('',#126,.T.);
#26=CIRCLE('',#548,3.);
#27=CIRCLE('',#549,3.);
#28=CIRCLE('',#551,3.);
#29=CIRCLE('',#552,3.);
#30=CIRCLE('',#553,3.);
#31=CIRCLE('',#554,1.);
#32=CIRCLE('',#555,1.);
#33=CIRCLE('',#556,1.);
#34=CIRCLE('',#557,1.);
#35=CIRCLE('',#558,1.45);
#36=CIRCLE('',#559,1.45);
#37=CIRCLE('',#560,1.45);
#38=CIRCLE('',#561,1.45);
#39=CIRCLE('',#564,3.);
#40=CIRCLE('',#566,3.);
#41=CIRCLE('',#569,3.);
#42=CIRCLE('',#571,1.);
#43=CIRCLE('',#574,1.);
#44=CIRCLE('',#577,1.);
#45=CIRCLE('',#580,1.);
#46=CIRCLE('',#584,1.45);
#47=CIRCLE('',#586,1.45);
#48=CIRCLE('',#588,1.45);
#49=CIRCLE('',#590,1.45);
#50=CYLINDRICAL_SURFACE('',#547,3.);
#51=CYLINDRICAL_SURFACE('',#563,3.);
#52=CYLINDRICAL_SURFACE('',#565,3.);
#53=CYLINDRICAL_SURFACE('',#568,3.);
#54=CYLINDRICAL_SURFACE('',#570,1.);
#55=CYLINDRICAL_SURFACE('',#573,1.);
#56=CYLINDRICAL_SURFACE('',#576,1.);
#57=CYLINDRICAL_SURFACE('',#579,1.);
#58=CYLINDRICAL_SURFACE('',#583,1.45);
#59=CYLINDRICAL_SURFACE('',#585,1.45);
#60=CYLINDRICAL_SURFACE('',#587,1.45);
#61=CYLINDRICAL_SURFACE('',#589,1.45);
#62=FACE_OUTER_BOUND('',#89,.T.);
#63=FACE_OUTER_BOUND('',#90,.T.);
#64=FACE_OUTER_BOUND('',#91,.T.);
#65=FACE_OUTER_BOUND('',#92,.T.);
#66=FACE_OUTER_BOUND('',#93,.T.);
#67=FACE_OUTER_BOUND('',#94,.T.);
#68=FACE_OUTER_BOUND('',#100,.T.);
#69=FACE_OUTER_BOUND('',#102,.T.);
#70=FACE_OUTER_BOUND('',#103,.T.);
#71=FACE_OUTER_BOUND('',#104,.T.);
#72=FACE_OUTER_BOUND('',#105,.T.);
#73=FACE_OUTER_BOUND('',#106,.T.);
#74=FACE_OUTER_BOUND('',#107,.T.);
#75=FACE_OUTER_BOUND('',#108,.T.);
#76=FACE_OUTER_BOUND('',#109,.T.);
#77=FACE_OUTER_BOUND('',#110,.T.);
#78=FACE_OUTER_BOUND('',#111,.T.);
#79=FACE_OUTER_BOUND('',#113,.T.);
#80=FACE_OUTER_BOUND('',#114,.T.);
#81=FACE_OUTER_BOUND('',#115,.T.);
#82=FACE_OUTER_BOUND('',#116,.T.);
#83=FACE_OUTER_BOUND('',#117,.T.);
#84=FACE_OUTER_BOUND('',#118,.T.);
#85=FACE_OUTER_BOUND('',#119,.T.);
#86=FACE_OUTER_BOUND('',#120,.T.);
#87=FACE_OUTER_BOUND('',#121,.T.);
#88=FACE_OUTER_BOUND('',#122,.T.);
#89=EDGE_LOOP('',(#343,#344,#345,#346));
#90=EDGE_LOOP('',(#347,#348,#349,#350));
#91=EDGE_LOOP('',(#351,#352,#353,#354));
#92=EDGE_LOOP('',(#355,#356,#357,#358));
#93=EDGE_LOOP('',(#359,#360,#361,#362));
#94=EDGE_LOOP('',(#363,#364,#365,#366,#367,#368,#369,#370));
#95=EDGE_LOOP('',(#371,#372,#373,#374,#375,#376,#377,#378));
#96=EDGE_LOOP('',(#379));
#97=EDGE_LOOP('',(#380));
#98=EDGE_LOOP('',(#381));
#99=EDGE_LOOP('',(#382));
#100=EDGE_LOOP('',(#383,#384,#385,#386));
#101=EDGE_LOOP('',(#387,#388,#389,#390));
#102=EDGE_LOOP('',(#391,#392,#393,#394));
#103=EDGE_LOOP('',(#395,#396,#397,#398));
#104=EDGE_LOOP('',(#399,#400,#401,#402));
#105=EDGE_LOOP('',(#403,#404,#405,#406));
#106=EDGE_LOOP('',(#407,#408,#409,#410));
#107=EDGE_LOOP('',(#411,#412,#413,#414));
#108=EDGE_LOOP('',(#415,#416,#417,#418));
#109=EDGE_LOOP('',(#419,#420,#421,#422));
#110=EDGE_LOOP('',(#423,#424,#425,#426));
#111=EDGE_LOOP('',(#427,#428,#429,#430));
#112=EDGE_LOOP('',(#431,#432,#433,#434));
#113=EDGE_LOOP('',(#435,#436,#437,#438));
#114=EDGE_LOOP('',(#439,#440,#441,#442,#443,#444,#445,#446));
#115=EDGE_LOOP('',(#447,#448,#449,#450));
#116=EDGE_LOOP('',(#451,#452,#453,#454));
#117=EDGE_LOOP('',(#455,#456,#457,#458));
#118=EDGE_LOOP('',(#459,#460,#461,#462));
#119=EDGE_LOOP('',(#463,#464,#465,#466));
#120=EDGE_LOOP('',(#467,#468,#469,#470));
#121=EDGE_LOOP('',(#471,#472,#473,#474));
#122=EDGE_LOOP('',(#475,#476,#477,#478,#479,#480,#481,#482));
#123=EDGE_LOOP('',(#483));
#124=EDGE_LOOP('',(#484));
#125=EDGE_LOOP('',(#485));
#126=EDGE_LOOP('',(#486));
#127=LINE('',#750,#175);
#128=LINE('',#752,#176);
#129=LINE('',#754,#177);
#130=LINE('',#755,#178);
#131=LINE('',#758,#179);
#132=LINE('',#760,#180);
#133=LINE('',#761,#181);
#134=LINE('',#764,#182);
#135=LINE('',#766,#183);
#136=LINE('',#767,#184);
#137=LINE('',#769,#185);
#138=LINE('',#770,#186);
#139=LINE('',#776,#187);
#140=LINE('',#779,#188);
#141=LINE('',#782,#189);
#142=LINE('',#786,#190);
#143=LINE('',#790,#191);
#144=LINE('',#793,#192);
#145=LINE('',#796,#193);
#146=LINE('',#800,#194);
#147=LINE('',#804,#195);
#148=LINE('',#808,#196);
#149=LINE('',#820,#197);
#150=LINE('',#821,#198);
#151=LINE('',#825,#199);
#152=LINE('',#828,#200);
#153=LINE('',#831,#201);
#154=LINE('',#834,#202);
#155=LINE('',#835,#203);
#156=LINE('',#839,#204);
#157=LINE('',#844,#205);
#158=LINE('',#845,#206);
#159=LINE('',#848,#207);
#160=LINE('',#849,#208);
#161=LINE('',#853,#209);
#162=LINE('',#856,#210);
#163=LINE('',#857,#211);
#164=LINE('',#861,#212);
#165=LINE('',#864,#213);
#166=LINE('',#865,#214);
#167=LINE('',#869,#215);
#168=LINE('',#871,#216);
#169=LINE('',#875,#217);
#170=LINE('',#879,#218);
#171=LINE('',#883,#219);
#172=LINE('',#887,#220);
#173=LINE('',#890,#221);
#174=LINE('',#892,#222);
#175=VECTOR('',#598,10.);
#176=VECTOR('',#599,10.);
#177=VECTOR('',#600,10.);
#178=VECTOR('',#601,10.);
#179=VECTOR('',#604,10.);
#180=VECTOR('',#605,10.);
#181=VECTOR('',#606,10.);
#182=VECTOR('',#609,10.);
#183=VECTOR('',#610,10.);
#184=VECTOR('',#611,10.);
#185=VECTOR('',#614,10.);
#186=VECTOR('',#615,10.);
#187=VECTOR('',#620,10.);
#188=VECTOR('',#623,10.);
#189=VECTOR('',#626,10.);
#190=VECTOR('',#629,10.);
#191=VECTOR('',#632,10.);
#192=VECTOR('',#635,10.);
#193=VECTOR('',#636,10.);
#194=VECTOR('',#639,10.);
#195=VECTOR('',#642,10.);
#196=VECTOR('',#645,10.);
#197=VECTOR('',#658,10.);
#198=VECTOR('',#659,10.);
#199=VECTOR('',#664,10.);
#200=VECTOR('',#667,10.);
#201=VECTOR('',#670,10.);
#202=VECTOR('',#673,10.);
#203=VECTOR('',#674,10.);
#204=VECTOR('',#679,10.);
#205=VECTOR('',#684,10.);
#206=VECTOR('',#685,10.);
#207=VECTOR('',#688,10.);
#208=VECTOR('',#689,10.);
#209=VECTOR('',#694,10.);
#210=VECTOR('',#697,10.);
#211=VECTOR('',#698,10.);
#212=VECTOR('',#703,10.);
#213=VECTOR('',#706,10.);
#214=VECTOR('',#707,10.);
#215=VECTOR('',#712,10.);
#216=VECTOR('',#715,10.);
#217=VECTOR('',#720,1.45);
#218=VECTOR('',#725,1.45);
#219=VECTOR('',#730,1.45);
#220=VECTOR('',#735,1.45);
#221=VECTOR('',#740,10.);
#222=VECTOR('',#743,10.);
#223=VERTEX_POINT('',#748);
#224=VERTEX_POINT('',#749);
#225=VERTEX_POINT('',#751);
#226=VERTEX_POINT('',#753);
#227=VERTEX_POINT('',#757);
#228=VERTEX_POINT('',#759);
#229=VERTEX_POINT('',#763);
#230=VERTEX_POINT('',#765);
#231=VERTEX_POINT('',#772);
#232=VERTEX_POINT('',#773);
#233=VERTEX_POINT('',#775);
#234=VERTEX_POINT('',#777);
#235=VERTEX_POINT('',#781);
#236=VERTEX_POINT('',#783);
#237=VERTEX_POINT('',#785);
#238=VERTEX_POINT('',#787);
#239=VERTEX_POINT('',#789);
#240=VERTEX_POINT('',#791);
#241=VERTEX_POINT('',#794);
#242=VERTEX_POINT('',#795);
#243=VERTEX_POINT('',#797);
#244=VERTEX_POINT('',#799);
#245=VERTEX_POINT('',#801);
#246=VERTEX_POINT('',#803);
#247=VERTEX_POINT('',#805);
#248=VERTEX_POINT('',#807);
#249=VERTEX_POINT('',#810);
#250=VERTEX_POINT('',#812);
#251=VERTEX_POINT('',#814);
#252=VERTEX_POINT('',#816);
#253=VERTEX_POINT('',#819);
#254=VERTEX_POINT('',#823);
#255=VERTEX_POINT('',#827);
#256=VERTEX_POINT('',#829);
#257=VERTEX_POINT('',#833);
#258=VERTEX_POINT('',#837);
#259=VERTEX_POINT('',#841);
#260=VERTEX_POINT('',#842);
#261=VERTEX_POINT('',#847);
#262=VERTEX_POINT('',#851);
#263=VERTEX_POINT('',#855);
#264=VERTEX_POINT('',#859);
#265=VERTEX_POINT('',#863);
#266=VERTEX_POINT('',#867);
#267=VERTEX_POINT('',#874);
#268=VERTEX_POINT('',#878);
#269=VERTEX_POINT('',#882);
#270=VERTEX_POINT('',#886);
#271=EDGE_CURVE('',#223,#224,#127,.T.);
#272=EDGE_CURVE('',#225,#224,#128,.T.);
#273=EDGE_CURVE('',#225,#226,#129,.T.);
#274=EDGE_CURVE('',#223,#226,#130,.T.);
#275=EDGE_CURVE('',#227,#226,#131,.T.);
#276=EDGE_CURVE('',#227,#228,#132,.T.);
#277=EDGE_CURVE('',#223,#228,#133,.T.);
#278=EDGE_CURVE('',#228,#229,#134,.T.);
#279=EDGE_CURVE('',#230,#227,#135,.T.);
#280=EDGE_CURVE('',#230,#229,#136,.T.);
#281=EDGE_CURVE('',#229,#224,#137,.T.);
#282=EDGE_CURVE('',#225,#230,#138,.T.);
#283=EDGE_CURVE('',#231,#232,#26,.T.);
#284=EDGE_CURVE('',#232,#233,#139,.T.);
#285=EDGE_CURVE('',#233,#234,#27,.T.);
#286=EDGE_CURVE('',#234,#231,#140,.T.);
#287=EDGE_CURVE('',#231,#235,#141,.T.);
#288=EDGE_CURVE('',#236,#235,#28,.T.);
#289=EDGE_CURVE('',#236,#237,#142,.T.);
#290=EDGE_CURVE('',#238,#237,#29,.T.);
#291=EDGE_CURVE('',#238,#239,#143,.T.);
#292=EDGE_CURVE('',#240,#239,#30,.T.);
#293=EDGE_CURVE('',#240,#232,#144,.T.);
#294=EDGE_CURVE('',#241,#242,#145,.T.);
#295=EDGE_CURVE('',#243,#242,#31,.T.);
#296=EDGE_CURVE('',#243,#244,#146,.T.);
#297=EDGE_CURVE('',#245,#244,#32,.T.);
#298=EDGE_CURVE('',#245,#246,#147,.T.);
#299=EDGE_CURVE('',#247,#246,#33,.T.);
#300=EDGE_CURVE('',#247,#248,#148,.T.);
#301=EDGE_CURVE('',#241,#248,#34,.T.);
#302=EDGE_CURVE('',#249,#249,#35,.T.);
#303=EDGE_CURVE('',#250,#250,#36,.T.);
#304=EDGE_CURVE('',#251,#251,#37,.T.);
#305=EDGE_CURVE('',#252,#252,#38,.T.);
#306=EDGE_CURVE('',#253,#234,#149,.T.);
#307=EDGE_CURVE('',#235,#253,#150,.T.);
#308=EDGE_CURVE('',#253,#254,#39,.T.);
#309=EDGE_CURVE('',#254,#236,#151,.T.);
#310=EDGE_CURVE('',#237,#255,#152,.T.);
#311=EDGE_CURVE('',#255,#256,#40,.T.);
#312=EDGE_CURVE('',#256,#238,#153,.T.);
#313=EDGE_CURVE('',#257,#256,#154,.T.);
#314=EDGE_CURVE('',#239,#257,#155,.T.);
#315=EDGE_CURVE('',#257,#258,#41,.T.);
#316=EDGE_CURVE('',#258,#240,#156,.T.);
#317=EDGE_CURVE('',#259,#260,#42,.T.);
#318=EDGE_CURVE('',#259,#241,#157,.T.);
#319=EDGE_CURVE('',#248,#260,#158,.T.);
#320=EDGE_CURVE('',#261,#259,#159,.T.);
#321=EDGE_CURVE('',#242,#261,#160,.T.);
#322=EDGE_CURVE('',#262,#261,#43,.T.);
#323=EDGE_CURVE('',#262,#243,#161,.T.);
#324=EDGE_CURVE('',#263,#262,#162,.T.);
#325=EDGE_CURVE('',#244,#263,#163,.T.);
#326=EDGE_CURVE('',#264,#263,#44,.T.);
#327=EDGE_CURVE('',#264,#245,#164,.T.);
#328=EDGE_CURVE('',#265,#264,#165,.T.);
#329=EDGE_CURVE('',#246,#265,#166,.T.);
#330=EDGE_CURVE('',#266,#265,#45,.T.);
#331=EDGE_CURVE('',#266,#247,#167,.T.);
#332=EDGE_CURVE('',#260,#266,#168,.T.);
#333=EDGE_CURVE('',#251,#267,#169,.T.);
#334=EDGE_CURVE('',#267,#267,#46,.T.);
#335=EDGE_CURVE('',#252,#268,#170,.T.);
#336=EDGE_CURVE('',#268,#268,#47,.T.);
#337=EDGE_CURVE('',#249,#269,#171,.T.);
#338=EDGE_CURVE('',#269,#269,#48,.T.);
#339=EDGE_CURVE('',#250,#270,#172,.T.);
#340=EDGE_CURVE('',#270,#270,#49,.T.);
#341=EDGE_CURVE('',#255,#254,#173,.T.);
#342=EDGE_CURVE('',#233,#258,#174,.T.);
#343=ORIENTED_EDGE('',*,*,#271,.T.);
#344=ORIENTED_EDGE('',*,*,#272,.F.);
#345=ORIENTED_EDGE('',*,*,#273,.T.);
#346=ORIENTED_EDGE('',*,*,#274,.F.);
#347=ORIENTED_EDGE('',*,*,#274,.T.);
#348=ORIENTED_EDGE('',*,*,#275,.F.);
#349=ORIENTED_EDGE('',*,*,#276,.T.);
#350=ORIENTED_EDGE('',*,*,#277,.F.);
#351=ORIENTED_EDGE('',*,*,#278,.F.);
#352=ORIENTED_EDGE('',*,*,#276,.F.);
#353=ORIENTED_EDGE('',*,*,#279,.F.);
#354=ORIENTED_EDGE('',*,*,#280,.T.);
#355=ORIENTED_EDGE('',*,*,#272,.T.);
#356=ORIENTED_EDGE('',*,*,#281,.F.);
#357=ORIENTED_EDGE('',*,*,#280,.F.);
#358=ORIENTED_EDGE('',*,*,#282,.F.);
#359=ORIENTED_EDGE('',*,*,#283,.T.);
#360=ORIENTED_EDGE('',*,*,#284,.T.);
#361=ORIENTED_EDGE('',*,*,#285,.T.);
#362=ORIENTED_EDGE('',*,*,#286,.T.);
#363=ORIENTED_EDGE('',*,*,#283,.F.);
#364=ORIENTED_EDGE('',*,*,#287,.T.);
#365=ORIENTED_EDGE('',*,*,#288,.F.);
#366=ORIENTED_EDGE('',*,*,#289,.T.);
#367=ORIENTED_EDGE('',*,*,#290,.F.);
#368=ORIENTED_EDGE('',*,*,#291,.T.);
#369=ORIENTED_EDGE('',*,*,#292,.F.);
#370=ORIENTED_EDGE('',*,*,#293,.T.);
#371=ORIENTED_EDGE('',*,*,#294,.T.);
#372=ORIENTED_EDGE('',*,*,#295,.F.);
#373=ORIENTED_EDGE('',*,*,#296,.T.);
#374=ORIENTED_EDGE('',*,*,#297,.F.);
#375=ORIENTED_EDGE('',*,*,#298,.T.);
#376=ORIENTED_EDGE('',*,*,#299,.F.);
#377=ORIENTED_EDGE('',*,*,#300,.T.);
#378=ORIENTED_EDGE('',*,*,#301,.F.);
#379=ORIENTED_EDGE('',*,*,#302,.T.);
#380=ORIENTED_EDGE('',*,*,#303,.T.);
#381=ORIENTED_EDGE('',*,*,#304,.T.);
#382=ORIENTED_EDGE('',*,*,#305,.T.);
#383=ORIENTED_EDGE('',*,*,#286,.F.);
#384=ORIENTED_EDGE('',*,*,#306,.F.);
#385=ORIENTED_EDGE('',*,*,#307,.F.);
#386=ORIENTED_EDGE('',*,*,#287,.F.);
#387=ORIENTED_EDGE('',*,*,#282,.T.);
#388=ORIENTED_EDGE('',*,*,#279,.T.);
#389=ORIENTED_EDGE('',*,*,#275,.T.);
#390=ORIENTED_EDGE('',*,*,#273,.F.);
#391=ORIENTED_EDGE('',*,*,#288,.T.);
#392=ORIENTED_EDGE('',*,*,#307,.T.);
#393=ORIENTED_EDGE('',*,*,#308,.T.);
#394=ORIENTED_EDGE('',*,*,#309,.T.);
#395=ORIENTED_EDGE('',*,*,#290,.T.);
#396=ORIENTED_EDGE('',*,*,#310,.T.);
#397=ORIENTED_EDGE('',*,*,#311,.T.);
#398=ORIENTED_EDGE('',*,*,#312,.T.);
#399=ORIENTED_EDGE('',*,*,#312,.F.);
#400=ORIENTED_EDGE('',*,*,#313,.F.);
#401=ORIENTED_EDGE('',*,*,#314,.F.);
#402=ORIENTED_EDGE('',*,*,#291,.F.);
#403=ORIENTED_EDGE('',*,*,#292,.T.);
#404=ORIENTED_EDGE('',*,*,#314,.T.);
#405=ORIENTED_EDGE('',*,*,#315,.T.);
#406=ORIENTED_EDGE('',*,*,#316,.T.);
#407=ORIENTED_EDGE('',*,*,#317,.F.);
#408=ORIENTED_EDGE('',*,*,#318,.T.);
#409=ORIENTED_EDGE('',*,*,#301,.T.);
#410=ORIENTED_EDGE('',*,*,#319,.T.);
#411=ORIENTED_EDGE('',*,*,#318,.F.);
#412=ORIENTED_EDGE('',*,*,#320,.F.);
#413=ORIENTED_EDGE('',*,*,#321,.F.);
#414=ORIENTED_EDGE('',*,*,#294,.F.);
#415=ORIENTED_EDGE('',*,*,#322,.F.);
#416=ORIENTED_EDGE('',*,*,#323,.T.);
#417=ORIENTED_EDGE('',*,*,#295,.T.);
#418=ORIENTED_EDGE('',*,*,#321,.T.);
#419=ORIENTED_EDGE('',*,*,#323,.F.);
#420=ORIENTED_EDGE('',*,*,#324,.F.);
#421=ORIENTED_EDGE('',*,*,#325,.F.);
#422=ORIENTED_EDGE('',*,*,#296,.F.);
#423=ORIENTED_EDGE('',*,*,#326,.F.);
#424=ORIENTED_EDGE('',*,*,#327,.T.);
#425=ORIENTED_EDGE('',*,*,#297,.T.);
#426=ORIENTED_EDGE('',*,*,#325,.T.);
#427=ORIENTED_EDGE('',*,*,#327,.F.);
#428=ORIENTED_EDGE('',*,*,#328,.F.);
#429=ORIENTED_EDGE('',*,*,#329,.F.);
#430=ORIENTED_EDGE('',*,*,#298,.F.);
#431=ORIENTED_EDGE('',*,*,#281,.T.);
#432=ORIENTED_EDGE('',*,*,#271,.F.);
#433=ORIENTED_EDGE('',*,*,#277,.T.);
#434=ORIENTED_EDGE('',*,*,#278,.T.);
#435=ORIENTED_EDGE('',*,*,#330,.F.);
#436=ORIENTED_EDGE('',*,*,#331,.T.);
#437=ORIENTED_EDGE('',*,*,#299,.T.);
#438=ORIENTED_EDGE('',*,*,#329,.T.);
#439=ORIENTED_EDGE('',*,*,#317,.T.);
#440=ORIENTED_EDGE('',*,*,#332,.T.);
#441=ORIENTED_EDGE('',*,*,#330,.T.);
#442=ORIENTED_EDGE('',*,*,#328,.T.);
#443=ORIENTED_EDGE('',*,*,#326,.T.);
#444=ORIENTED_EDGE('',*,*,#324,.T.);
#445=ORIENTED_EDGE('',*,*,#322,.T.);
#446=ORIENTED_EDGE('',*,*,#320,.T.);
#447=ORIENTED_EDGE('',*,*,#319,.F.);
#448=ORIENTED_EDGE('',*,*,#300,.F.);
#449=ORIENTED_EDGE('',*,*,#331,.F.);
#450=ORIENTED_EDGE('',*,*,#332,.F.);
#451=ORIENTED_EDGE('',*,*,#304,.F.);
#452=ORIENTED_EDGE('',*,*,#333,.T.);
#453=ORIENTED_EDGE('',*,*,#334,.T.);
#454=ORIENTED_EDGE('',*,*,#333,.F.);
#455=ORIENTED_EDGE('',*,*,#305,.F.);
#456=ORIENTED_EDGE('',*,*,#335,.T.);
#457=ORIENTED_EDGE('',*,*,#336,.T.);
#458=ORIENTED_EDGE('',*,*,#335,.F.);
#459=ORIENTED_EDGE('',*,*,#302,.F.);
#460=ORIENTED_EDGE('',*,*,#337,.T.);
#461=ORIENTED_EDGE('',*,*,#338,.T.);
#462=ORIENTED_EDGE('',*,*,#337,.F.);
#463=ORIENTED_EDGE('',*,*,#303,.F.);
#464=ORIENTED_EDGE('',*,*,#339,.T.);
#465=ORIENTED_EDGE('',*,*,#340,.T.);
#466=ORIENTED_EDGE('',*,*,#339,.F.);
#467=ORIENTED_EDGE('',*,*,#309,.F.);
#468=ORIENTED_EDGE('',*,*,#341,.F.);
#469=ORIENTED_EDGE('',*,*,#310,.F.);
#470=ORIENTED_EDGE('',*,*,#289,.F.);
#471=ORIENTED_EDGE('',*,*,#284,.F.);
#472=ORIENTED_EDGE('',*,*,#293,.F.);
#473=ORIENTED_EDGE('',*,*,#316,.F.);
#474=ORIENTED_EDGE('',*,*,#342,.F.);
#475=ORIENTED_EDGE('',*,*,#285,.F.);
#476=ORIENTED_EDGE('',*,*,#342,.T.);
#477=ORIENTED_EDGE('',*,*,#315,.F.);
#478=ORIENTED_EDGE('',*,*,#313,.T.);
#479=ORIENTED_EDGE('',*,*,#311,.F.);
#480=ORIENTED_EDGE('',*,*,#341,.T.);
#481=ORIENTED_EDGE('',*,*,#308,.F.);
#482=ORIENTED_EDGE('',*,*,#306,.T.);
#483=ORIENTED_EDGE('',*,*,#340,.F.);
#484=ORIENTED_EDGE('',*,*,#338,.F.);
#485=ORIENTED_EDGE('',*,*,#336,.F.);
#486=ORIENTED_EDGE('',*,*,#334,.F.);
#487=PLANE('',#543);
#488=PLANE('',#544);
#489=PLANE('',#545);
#490=PLANE('',#546);
#491=PLANE('',#550);
#492=PLANE('',#562);
#493=PLANE('',#567);
#494=PLANE('',#572);
#495=PLANE('',#575);
#496=PLANE('',#578);
#497=PLANE('',#581);
#498=PLANE('',#582);
#499=PLANE('',#591);
#500=PLANE('',#592);
#501=PLANE('',#593);
#502=ADVANCED_FACE('',(#62),#487,.T.);
#503=ADVANCED_FACE('',(#63),#488,.F.);
#504=ADVANCED_FACE('',(#64),#489,.F.);
#505=ADVANCED_FACE('',(#65),#490,.F.);
#506=ADVANCED_FACE('',(#66),#50,.T.);
#507=ADVANCED_FACE('',(#67,#15,#16,#17,#18,#19),#491,.T.);
#508=ADVANCED_FACE('',(#68,#20),#492,.T.);
#509=ADVANCED_FACE('',(#69),#51,.T.);
#510=ADVANCED_FACE('',(#70),#52,.T.);
#511=ADVANCED_FACE('',(#71),#493,.T.);
#512=ADVANCED_FACE('',(#72),#53,.T.);
#513=ADVANCED_FACE('',(#73),#54,.F.);
#514=ADVANCED_FACE('',(#74),#494,.T.);
#515=ADVANCED_FACE('',(#75),#55,.F.);
#516=ADVANCED_FACE('',(#76),#495,.T.);
#517=ADVANCED_FACE('',(#77),#56,.F.);
#518=ADVANCED_FACE('',(#78,#21),#496,.T.);
#519=ADVANCED_FACE('',(#79),#57,.F.);
#520=ADVANCED_FACE('',(#80),#497,.T.);
#521=ADVANCED_FACE('',(#81),#498,.T.);
#522=ADVANCED_FACE('',(#82),#58,.F.);
#523=ADVANCED_FACE('',(#83),#59,.F.);
#524=ADVANCED_FACE('',(#84),#60,.F.);
#525=ADVANCED_FACE('',(#85),#61,.F.);
#526=ADVANCED_FACE('',(#86),#499,.T.);
#527=ADVANCED_FACE('',(#87),#500,.T.);
#528=ADVANCED_FACE('',(#88,#22,#23,#24,#25),#501,.F.);
#529=CLOSED_SHELL('',(#502,#503,#504,#505,#506,#507,#508,#509,#510,#511,
#512,#513,#514,#515,#516,#517,#518,#519,#520,#521,#522,#523,#524,#525,#526,
#527,#528));
#530=DERIVED_UNIT_ELEMENT(#532,1.);
#531=DERIVED_UNIT_ELEMENT(#899,-3.);
#532=(
MASS_UNIT()
NAMED_UNIT(*)
SI_UNIT(.KILO.,.GRAM.)
);
#533=DERIVED_UNIT((#530,#531));
#534=MEASURE_REPRESENTATION_ITEM('density measure',
POSITIVE_RATIO_MEASURE(7850.),#533);
#535=PROPERTY_DEFINITION_REPRESENTATION(#540,#537);
#536=PROPERTY_DEFINITION_REPRESENTATION(#541,#538);
#537=REPRESENTATION('material name',(#539),#896);
#538=REPRESENTATION('density',(#534),#896);
#539=DESCRIPTIVE_REPRESENTATION_ITEM('Steel','Steel');
#540=PROPERTY_DEFINITION('material property','material name',#906);
#541=PROPERTY_DEFINITION('material property','density of part',#906);
#542=AXIS2_PLACEMENT_3D('',#746,#594,#595);
#543=AXIS2_PLACEMENT_3D('',#747,#596,#597);
#544=AXIS2_PLACEMENT_3D('',#756,#602,#603);
#545=AXIS2_PLACEMENT_3D('',#762,#607,#608);
#546=AXIS2_PLACEMENT_3D('',#768,#612,#613);
#547=AXIS2_PLACEMENT_3D('',#771,#616,#617);
#548=AXIS2_PLACEMENT_3D('',#774,#618,#619);
#549=AXIS2_PLACEMENT_3D('',#778,#621,#622);
#550=AXIS2_PLACEMENT_3D('',#780,#624,#625);
#551=AXIS2_PLACEMENT_3D('',#784,#627,#628);
#552=AXIS2_PLACEMENT_3D('',#788,#630,#631);
#553=AXIS2_PLACEMENT_3D('',#792,#633,#634);
#554=AXIS2_PLACEMENT_3D('',#798,#637,#638);
#555=AXIS2_PLACEMENT_3D('',#802,#640,#641);
#556=AXIS2_PLACEMENT_3D('',#806,#643,#644);
#557=AXIS2_PLACEMENT_3D('',#809,#646,#647);
#558=AXIS2_PLACEMENT_3D('',#811,#648,#649);
#559=AXIS2_PLACEMENT_3D('',#813,#650,#651);
#560=AXIS2_PLACEMENT_3D('',#815,#652,#653);
#561=AXIS2_PLACEMENT_3D('',#817,#654,#655);
#562=AXIS2_PLACEMENT_3D('',#818,#656,#657);
#563=AXIS2_PLACEMENT_3D('',#822,#660,#661);
#564=AXIS2_PLACEMENT_3D('',#824,#662,#663);
#565=AXIS2_PLACEMENT_3D('',#826,#665,#666);
#566=AXIS2_PLACEMENT_3D('',#830,#668,#669);
#567=AXIS2_PLACEMENT_3D('',#832,#671,#672);
#568=AXIS2_PLACEMENT_3D('',#836,#675,#676);
#569=AXIS2_PLACEMENT_3D('',#838,#677,#678);
#570=AXIS2_PLACEMENT_3D('',#840,#680,#681);
#571=AXIS2_PLACEMENT_3D('',#843,#682,#683);
#572=AXIS2_PLACEMENT_3D('',#846,#686,#687);
#573=AXIS2_PLACEMENT_3D('',#850,#690,#691);
#574=AXIS2_PLACEMENT_3D('',#852,#692,#693);
#575=AXIS2_PLACEMENT_3D('',#854,#695,#696);
#576=AXIS2_PLACEMENT_3D('',#858,#699,#700);
#577=AXIS2_PLACEMENT_3D('',#860,#701,#702);
#578=AXIS2_PLACEMENT_3D('',#862,#704,#705);
#579=AXIS2_PLACEMENT_3D('',#866,#708,#709);
#580=AXIS2_PLACEMENT_3D('',#868,#710,#711);
#581=AXIS2_PLACEMENT_3D('',#870,#713,#714);
#582=AXIS2_PLACEMENT_3D('',#872,#716,#717);
#583=AXIS2_PLACEMENT_3D('',#873,#718,#719);
#584=AXIS2_PLACEMENT_3D('',#876,#721,#722);
#585=AXIS2_PLACEMENT_3D('',#877,#723,#724);
#586=AXIS2_PLACEMENT_3D('',#880,#726,#727);
#587=AXIS2_PLACEMENT_3D('',#881,#728,#729);
#588=AXIS2_PLACEMENT_3D('',#884,#731,#732);
#589=AXIS2_PLACEMENT_3D('',#885,#733,#734);
#590=AXIS2_PLACEMENT_3D('',#888,#736,#737);
#591=AXIS2_PLACEMENT_3D('',#889,#738,#739);
#592=AXIS2_PLACEMENT_3D('',#891,#741,#742);
#593=AXIS2_PLACEMENT_3D('',#893,#744,#745);
#594=DIRECTION('axis',(0.,0.,1.));
#595=DIRECTION('refdir',(1.,0.,0.));
#596=DIRECTION('center_axis',(0.,-1.,0.));
#597=DIRECTION('ref_axis',(0.,0.,-1.));
#598=DIRECTION('',(-1.,0.,-8.93539657646001E-17));
#599=DIRECTION('',(0.,0.,1.));
#600=DIRECTION('',(1.,0.,0.));
#601=DIRECTION('',(0.,0.,-1.));
#602=DIRECTION('center_axis',(1.,0.,0.));
#603=DIRECTION('ref_axis',(0.,1.,0.));
#604=DIRECTION('',(0.,1.,0.));
#605=DIRECTION('',(0.,0.,1.));
#606=DIRECTION('',(0.,-1.,0.));
#607=DIRECTION('center_axis',(0.,-1.,0.));
#608=DIRECTION('ref_axis',(1.,0.,0.));
#609=DIRECTION('',(-1.,0.,-8.93539657646001E-17));
#610=DIRECTION('',(1.,0.,0.));
#611=DIRECTION('',(0.,0.,1.));
#612=DIRECTION('center_axis',(-1.,0.,0.));
#613=DIRECTION('ref_axis',(0.,-1.,0.));
#614=DIRECTION('',(0.,1.,0.));
#615=DIRECTION('',(0.,-1.,0.));
#616=DIRECTION('center_axis',(0.,1.,0.));
#617=DIRECTION('ref_axis',(0.707106781186549,0.,-0.707106781186546));
#618=DIRECTION('center_axis',(0.,-1.,0.));
#619=DIRECTION('ref_axis',(0.707106781186549,0.,-0.707106781186546));
#620=DIRECTION('',(0.,-1.,0.));
#621=DIRECTION('center_axis',(0.,1.,0.));
#622=DIRECTION('ref_axis',(0.707106781186549,0.,-0.707106781186546));
#623=DIRECTION('',(0.,1.,0.));
#624=DIRECTION('center_axis',(0.,1.,0.));
#625=DIRECTION('ref_axis',(1.,0.,0.));
#626=DIRECTION('',(-1.,0.,0.));
#627=DIRECTION('center_axis',(0.,-1.,0.));
#628=DIRECTION('ref_axis',(-0.707106781186546,0.,-0.707106781186549));
#629=DIRECTION('',(-4.67954910274039E-17,0.,1.));
#630=DIRECTION('center_axis',(0.,-1.,0.));
#631=DIRECTION('ref_axis',(-0.70710678118655,0.,0.707106781186545));
#632=DIRECTION('',(1.,0.,-7.43868023199435E-17));
#633=DIRECTION('center_axis',(0.,-1.,0.));
#634=DIRECTION('ref_axis',(0.707106781186548,0.,0.707106781186548));
#635=DIRECTION('',(-1.87181964109615E-16,0.,-1.));
#636=DIRECTION('',(-1.,0.,-8.93539657646001E-17));
#637=DIRECTION('center_axis',(0.,1.,0.));
#638=DIRECTION('ref_axis',(-0.707106781186551,0.,0.707106781186544));
#639=DIRECTION('',(0.,0.,-1.));
#640=DIRECTION('center_axis',(0.,1.,0.));
#641=DIRECTION('ref_axis',(-0.707106781186548,0.,-0.707106781186548));
#642=DIRECTION('',(1.,0.,8.93539657646001E-17));
#643=DIRECTION('center_axis',(0.,1.,0.));
#644=DIRECTION('ref_axis',(0.707106781186544,0.,-0.707106781186551));
#645=DIRECTION('',(-1.18581898491338E-16,0.,1.));
#646=DIRECTION('center_axis',(0.,1.,0.));
#647=DIRECTION('ref_axis',(0.707106781186548,0.,0.707106781186548));
#648=DIRECTION('center_axis',(0.,-1.,0.));
#649=DIRECTION('ref_axis',(1.,0.,0.));
#650=DIRECTION('center_axis',(0.,-1.,0.));
#651=DIRECTION('ref_axis',(1.,0.,0.));
#652=DIRECTION('center_axis',(0.,-1.,0.));
#653=DIRECTION('ref_axis',(1.,0.,0.));
#654=DIRECTION('center_axis',(0.,-1.,0.));
#655=DIRECTION('ref_axis',(1.,0.,0.));
#656=DIRECTION('center_axis',(0.,0.,-1.));
#657=DIRECTION('ref_axis',(-1.,0.,0.));
#658=DIRECTION('',(1.,0.,0.));
#659=DIRECTION('',(0.,-1.,0.));
#660=DIRECTION('center_axis',(0.,1.,0.));
#661=DIRECTION('ref_axis',(-0.707106781186546,0.,-0.707106781186549));
#662=DIRECTION('center_axis',(0.,1.,0.));
#663=DIRECTION('ref_axis',(-0.707106781186546,0.,-0.707106781186549));
#664=DIRECTION('',(0.,1.,0.));
#665=DIRECTION('center_axis',(0.,1.,0.));
#666=DIRECTION('ref_axis',(-0.70710678118655,0.,0.707106781186545));
#667=DIRECTION('',(0.,-1.,0.));
#668=DIRECTION('center_axis',(0.,1.,0.));
#669=DIRECTION('ref_axis',(-0.70710678118655,0.,0.707106781186545));
#670=DIRECTION('',(0.,1.,0.));
#671=DIRECTION('center_axis',(7.43868023199435E-17,0.,1.));
#672=DIRECTION('ref_axis',(1.,0.,-7.43868023199435E-17));
#673=DIRECTION('',(-1.,0.,7.43868023199435E-17));
#674=DIRECTION('',(0.,-1.,0.));
#675=DIRECTION('center_axis',(0.,1.,0.));
#676=DIRECTION('ref_axis',(0.707106781186548,0.,0.707106781186548));
#677=DIRECTION('center_axis',(0.,1.,0.));
#678=DIRECTION('ref_axis',(0.707106781186548,0.,0.707106781186548));
#679=DIRECTION('',(0.,1.,0.));
#680=DIRECTION('center_axis',(0.,1.,0.));
#681=DIRECTION('ref_axis',(0.707106781186548,0.,0.707106781186548));
#682=DIRECTION('center_axis',(0.,1.,0.));
#683=DIRECTION('ref_axis',(0.707106781186548,0.,0.707106781186548));
#684=DIRECTION('',(0.,1.,0.));
#685=DIRECTION('',(0.,-1.,0.));
#686=DIRECTION('center_axis',(8.93539657646001E-17,0.,-1.));
#687=DIRECTION('ref_axis',(-1.,0.,-8.93539657646001E-17));
#688=DIRECTION('',(1.,0.,8.93539657646001E-17));
#689=DIRECTION('',(0.,-1.,0.));
#690=DIRECTION('center_axis',(0.,1.,0.));
#691=DIRECTION('ref_axis',(-0.707106781186551,0.,0.707106781186544));
#692=DIRECTION('center_axis',(0.,1.,0.));
#693=DIRECTION('ref_axis',(-0.707106781186551,0.,0.707106781186544));
#694=DIRECTION('',(0.,1.,0.));
#695=DIRECTION('center_axis',(1.,0.,0.));
#696=DIRECTION('ref_axis',(0.,0.,-1.));
#697=DIRECTION('',(0.,0.,1.));
#698=DIRECTION('',(0.,-1.,0.));
#699=DIRECTION('center_axis',(0.,1.,0.));
#700=DIRECTION('ref_axis',(-0.707106781186548,0.,-0.707106781186548));
#701=DIRECTION('center_axis',(0.,1.,0.));
#702=DIRECTION('ref_axis',(-0.707106781186548,0.,-0.707106781186548));
#703=DIRECTION('',(0.,1.,0.));
#704=DIRECTION('center_axis',(-8.93539657646001E-17,0.,1.));
#705=DIRECTION('ref_axis',(1.,0.,8.93539657646001E-17));
#706=DIRECTION('',(-1.,0.,-8.93539657646001E-17));
#707=DIRECTION('',(0.,-1.,0.));
#708=DIRECTION('center_axis',(0.,1.,0.));
#709=DIRECTION('ref_axis',(0.707106781186544,0.,-0.707106781186551));
#710=DIRECTION('center_axis',(0.,1.,0.));
#711=DIRECTION('ref_axis',(0.707106781186544,0.,-0.707106781186551));
#712=DIRECTION('',(0.,1.,0.));
#713=DIRECTION('center_axis',(0.,1.,0.));
#714=DIRECTION('ref_axis',(1.,0.,0.));
#715=DIRECTION('',(1.18581898491338E-16,0.,-1.));
#716=DIRECTION('center_axis',(-1.,0.,-1.18581898491338E-16));
#717=DIRECTION('ref_axis',(-1.18581898491338E-16,0.,1.));
#718=DIRECTION('center_axis',(0.,1.,0.));
#719=DIRECTION('ref_axis',(1.,0.,0.));
#720=DIRECTION('',(0.,-1.,0.));
#721=DIRECTION('center_axis',(0.,-1.,0.));
#722=DIRECTION('ref_axis',(1.,0.,0.));
#723=DIRECTION('center_axis',(0.,1.,0.));
#724=DIRECTION('ref_axis',(1.,0.,0.));
#725=DIRECTION('',(0.,-1.,0.));
#726=DIRECTION('center_axis',(0.,-1.,0.));
#727=DIRECTION('ref_axis',(1.,0.,0.));
#728=DIRECTION('center_axis',(0.,1.,0.));
#729=DIRECTION('ref_axis',(1.,0.,0.));
#730=DIRECTION('',(0.,-1.,0.));
#731=DIRECTION('center_axis',(0.,-1.,0.));
#732=DIRECTION('ref_axis',(1.,0.,0.));
#733=DIRECTION('center_axis',(0.,1.,0.));
#734=DIRECTION('ref_axis',(1.,0.,0.));
#735=DIRECTION('',(0.,-1.,0.));
#736=DIRECTION('center_axis',(0.,-1.,0.));
#737=DIRECTION('ref_axis',(1.,0.,0.));
#738=DIRECTION('center_axis',(-1.,0.,-4.67954910274039E-17));
#739=DIRECTION('ref_axis',(-4.67954910274039E-17,0.,1.));
#740=DIRECTION('',(4.67954910274039E-17,0.,-1.));
#741=DIRECTION('center_axis',(1.,0.,-1.87181964109615E-16));
#742=DIRECTION('ref_axis',(-1.87181964109615E-16,0.,-1.));
#743=DIRECTION('',(1.87181964109615E-16,0.,1.));
#744=DIRECTION('center_axis',(0.,1.,0.));
#745=DIRECTION('ref_axis',(1.,0.,0.));
#746=CARTESIAN_POINT('',(0.,0.,0.));
#747=CARTESIAN_POINT('Origin',(-1.00000011920929,11.5000001788139,-35.0000002942293));
#748=CARTESIAN_POINT('',(-1.00000011920929,11.5000001788139,-25.0000002942293));
#749=CARTESIAN_POINT('',(-21.0000004172325,11.5000001788139,-25.0000002942293));
#750=CARTESIAN_POINT('',(-13.205800188659,11.5000001788139,-25.0000002942293));
#751=CARTESIAN_POINT('',(-21.0000004172325,11.5000001788139,-35.0000002942293));
#752=CARTESIAN_POINT('',(-21.0000004172325,11.5000001788139,-35.0000002942293));
#753=CARTESIAN_POINT('',(-1.00000011920929,11.5000001788139,-35.0000002942293));
#754=CARTESIAN_POINT('',(41.494199811341,11.5000001788139,-35.0000002942293));
#755=CARTESIAN_POINT('',(-1.00000011920929,11.5000001788139,-35.0000002942293));
#756=CARTESIAN_POINT('Origin',(-1.00000011920929,4.00000005960464,-35.0000002942293));
#757=CARTESIAN_POINT('',(-1.00000011920929,4.00000005960464,-35.0000002942293));
#758=CARTESIAN_POINT('',(-1.0000001192093,2.00000002980232,-35.0000002942293));
#759=CARTESIAN_POINT('',(-1.00000011920929,4.00000005960464,-25.0000002942293));
#760=CARTESIAN_POINT('',(-1.00000011920929,4.00000005960464,-35.0000002942293));
#761=CARTESIAN_POINT('',(-1.00000011920929,2.00000002980232,-25.0000002942293));
#762=CARTESIAN_POINT('Origin',(-21.0000004172325,4.00000005960464,-35.0000002942293));
#763=CARTESIAN_POINT('',(-21.0000004172325,4.00000005960464,-25.0000002942293));
#764=CARTESIAN_POINT('',(-23.2058003376706,4.00000005960464,-25.0000002942293));
#765=CARTESIAN_POINT('',(-21.0000004172325,4.00000005960464,-35.0000002942293));
#766=CARTESIAN_POINT('',(31.4941996623294,4.00000005960464,-35.0000002942293));
#767=CARTESIAN_POINT('',(-21.0000004172325,4.00000005960464,-35.0000002942293));
#768=CARTESIAN_POINT('Origin',(-21.0000004172325,12.0000001788139,-35.0000002942293));
#769=CARTESIAN_POINT('',(-21.0000004172325,6.00000008940697,-25.0000002942293));
#770=CARTESIAN_POINT('',(-21.0000004172325,6.00000008940697,-35.0000002942293));
#771=CARTESIAN_POINT('Origin',(80.9883997418913,0.,-32.0000002942293));
#772=CARTESIAN_POINT('',(80.9883997418913,13.,-35.0000002942293));
#773=CARTESIAN_POINT('',(83.9883997418913,13.,-32.0000002942293));
#774=CARTESIAN_POINT('Origin',(80.9883997418913,13.,-32.0000002942293));
#775=CARTESIAN_POINT('',(83.9883997418913,0.,-32.0000002942293));
#776=CARTESIAN_POINT('',(83.9883997418913,0.,-32.0000002942293));
#777=CARTESIAN_POINT('',(80.9883997418913,0.,-35.0000002942293));
#778=CARTESIAN_POINT('Origin',(80.9883997418913,0.,-32.0000002942293));
#779=CARTESIAN_POINT('',(80.9883997418913,0.,-35.0000002942293));
#780=CARTESIAN_POINT('Origin',(24.2883997418913,13.,12.4499997057707));
#781=CARTESIAN_POINT('',(-32.4116002581087,13.,-35.0000002942293));
#782=CARTESIAN_POINT('',(-35.4116002581087,13.,-35.0000002942293));
#783=CARTESIAN_POINT('',(-35.4116002581087,13.,-32.0000002942293));
#784=CARTESIAN_POINT('Origin',(-32.4116002581087,13.,-32.0000002942293));
#785=CARTESIAN_POINT('',(-35.4116002581088,13.,56.8999997057707));
#786=CARTESIAN_POINT('',(-35.4116002581088,13.,59.8999997057707));
#787=CARTESIAN_POINT('',(-32.4116002581088,13.,59.8999997057707));
#788=CARTESIAN_POINT('Origin',(-32.4116002581087,13.,56.8999997057707));
#789=CARTESIAN_POINT('',(80.9883997418913,13.,59.8999997057707));
#790=CARTESIAN_POINT('',(83.9883997418913,13.,59.8999997057707));
#791=CARTESIAN_POINT('',(83.9883997418913,13.,56.8999997057707));
#792=CARTESIAN_POINT('Origin',(80.9883997418913,13.,56.8999997057707));
#793=CARTESIAN_POINT('',(83.9883997418913,13.,-35.0000002942293));
#794=CARTESIAN_POINT('',(72.9883997418913,13.,49.8999997057707));
#795=CARTESIAN_POINT('',(-24.4116002581088,13.,49.8999997057707));
#796=CARTESIAN_POINT('',(73.9883997418912,13.,49.8999997057707));
#797=CARTESIAN_POINT('',(-25.4116002581088,13.,48.8999997057707));
#798=CARTESIAN_POINT('Origin',(-24.4116002581088,13.,48.8999997057707));
#799=CARTESIAN_POINT('',(-25.4116002581088,13.,-24.0000002942293));
#800=CARTESIAN_POINT('',(-25.4116002581088,13.,49.8999997057707));
#801=CARTESIAN_POINT('',(-24.4116002581088,13.,-25.0000002942293));
#802=CARTESIAN_POINT('Origin',(-24.4116002581088,13.,-24.0000002942293));
#803=CARTESIAN_POINT('',(72.9883997418913,13.,-25.0000002942293));
#804=CARTESIAN_POINT('',(-25.4116002581088,13.,-25.0000002942293));
#805=CARTESIAN_POINT('',(73.9883997418913,13.,-24.0000002942293));
#806=CARTESIAN_POINT('Origin',(72.9883997418913,13.,-24.0000002942293));
#807=CARTESIAN_POINT('',(73.9883997418912,13.,48.8999997057707));
#808=CARTESIAN_POINT('',(73.9883997418913,13.,-25.0000002942293));
#809=CARTESIAN_POINT('Origin',(72.9883997418913,13.,48.8999997057707));
#810=CARTESIAN_POINT('',(-31.8616002581087,13.,54.8999997057707));
#811=CARTESIAN_POINT('Origin',(-30.4116002581087,13.,54.8999997057707));
#812=CARTESIAN_POINT('',(77.5383997418839,13.,54.8999997057711));
#813=CARTESIAN_POINT('Origin',(78.9883997418839,13.,54.8999997057711));
#814=CARTESIAN_POINT('',(-31.8616002581088,13.,-30.0000002942293));
#815=CARTESIAN_POINT('Origin',(-30.4116002581088,13.,-30.0000002942293));
#816=CARTESIAN_POINT('',(77.5383997418913,13.,-30.0000002942293));
#817=CARTESIAN_POINT('Origin',(78.9883997418912,13.,-30.0000002942293));
#818=CARTESIAN_POINT('Origin',(83.9883997418913,0.,-35.0000002942293));
#819=CARTESIAN_POINT('',(-32.4116002581087,0.,-35.0000002942293));
#820=CARTESIAN_POINT('',(-35.4116002581087,0.,-35.0000002942293));
#821=CARTESIAN_POINT('',(-32.4116002581087,0.,-35.0000002942293));
#822=CARTESIAN_POINT('Origin',(-32.4116002581087,0.,-32.0000002942293));
#823=CARTESIAN_POINT('',(-35.4116002581087,0.,-32.0000002942293));
#824=CARTESIAN_POINT('Origin',(-32.4116002581087,0.,-32.0000002942293));
#825=CARTESIAN_POINT('',(-35.4116002581087,0.,-32.0000002942293));
#826=CARTESIAN_POINT('Origin',(-32.4116002581087,0.,56.8999997057707));
#827=CARTESIAN_POINT('',(-35.4116002581088,0.,56.8999997057707));
#828=CARTESIAN_POINT('',(-35.4116002581088,0.,56.8999997057707));
#829=CARTESIAN_POINT('',(-32.4116002581088,0.,59.8999997057707));
#830=CARTESIAN_POINT('Origin',(-32.4116002581087,0.,56.8999997057707));
#831=CARTESIAN_POINT('',(-32.4116002581087,0.,59.8999997057707));
#832=CARTESIAN_POINT('Origin',(-35.4116002581087,0.,59.8999997057707));
#833=CARTESIAN_POINT('',(80.9883997418913,0.,59.8999997057707));
#834=CARTESIAN_POINT('',(83.9883997418913,0.,59.8999997057707));
#835=CARTESIAN_POINT('',(80.9883997418913,0.,59.8999997057707));
#836=CARTESIAN_POINT('Origin',(80.9883997418913,0.,56.8999997057707));
#837=CARTESIAN_POINT('',(83.9883997418913,0.,56.8999997057707));
#838=CARTESIAN_POINT('Origin',(80.9883997418913,0.,56.8999997057707));
#839=CARTESIAN_POINT('',(83.9883997418913,0.,56.8999997057707));
#840=CARTESIAN_POINT('Origin',(72.9883997418913,0.,48.8999997057707));
#841=CARTESIAN_POINT('',(72.9883997418913,3.,49.8999997057707));
#842=CARTESIAN_POINT('',(73.9883997418912,3.,48.8999997057707));
#843=CARTESIAN_POINT('Origin',(72.9883997418913,3.,48.8999997057707));
#844=CARTESIAN_POINT('',(72.9883997418913,0.,49.8999997057707));
#845=CARTESIAN_POINT('',(73.9883997418912,0.,48.8999997057707));
#846=CARTESIAN_POINT('Origin',(73.9883997418912,0.,49.8999997057707));
#847=CARTESIAN_POINT('',(-24.4116002581088,3.,49.8999997057707));
#848=CARTESIAN_POINT('',(49.1383997418912,3.,49.8999997057707));
#849=CARTESIAN_POINT('',(-24.4116002581088,0.,49.8999997057707));
#850=CARTESIAN_POINT('Origin',(-24.4116002581088,0.,48.8999997057707));
#851=CARTESIAN_POINT('',(-25.4116002581088,3.,48.8999997057707));
#852=CARTESIAN_POINT('Origin',(-24.4116002581088,3.,48.8999997057707));
#853=CARTESIAN_POINT('',(-25.4116002581088,0.,48.8999997057707));
#854=CARTESIAN_POINT('Origin',(-25.4116002581088,0.,49.8999997057707));
#855=CARTESIAN_POINT('',(-25.4116002581088,3.,-24.0000002942293));
#856=CARTESIAN_POINT('',(-25.4116002581088,3.,31.1749997057707));
#857=CARTESIAN_POINT('',(-25.4116002581088,0.,-24.0000002942293));
#858=CARTESIAN_POINT('Origin',(-24.4116002581088,0.,-24.0000002942293));
#859=CARTESIAN_POINT('',(-24.4116002581088,3.,-25.0000002942293));
#860=CARTESIAN_POINT('Origin',(-24.4116002581088,3.,-24.0000002942293));
#861=CARTESIAN_POINT('',(-24.4116002581088,0.,-25.0000002942293));
#862=CARTESIAN_POINT('Origin',(-25.4116002581088,0.,-25.0000002942293));
#863=CARTESIAN_POINT('',(72.9883997418913,3.,-25.0000002942293));
#864=CARTESIAN_POINT('',(-0.561600258108744,3.,-25.0000002942293));
#865=CARTESIAN_POINT('',(72.9883997418913,0.,-25.0000002942293));
#866=CARTESIAN_POINT('Origin',(72.9883997418913,0.,-24.0000002942293));
#867=CARTESIAN_POINT('',(73.9883997418913,3.,-24.0000002942293));
#868=CARTESIAN_POINT('Origin',(72.9883997418913,3.,-24.0000002942293));
#869=CARTESIAN_POINT('',(73.9883997418913,0.,-24.0000002942293));
#870=CARTESIAN_POINT('Origin',(24.2883997418913,3.,12.4499997057707));
#871=CARTESIAN_POINT('',(73.9883997418913,3.,-6.2750002942293));
#872=CARTESIAN_POINT('Origin',(73.9883997418913,0.,-25.0000002942293));
#873=CARTESIAN_POINT('Origin',(-30.4116002581088,0.,-30.0000002942293));
#874=CARTESIAN_POINT('',(-31.8616002581088,0.,-30.0000002942293));
#875=CARTESIAN_POINT('',(-31.8616002581088,0.,-30.0000002942293));
#876=CARTESIAN_POINT('Origin',(-30.4116002581088,0.,-30.0000002942293));
#877=CARTESIAN_POINT('Origin',(78.9883997418912,0.,-30.0000002942293));
#878=CARTESIAN_POINT('',(77.5383997418913,0.,-30.0000002942293));
#879=CARTESIAN_POINT('',(77.5383997418913,0.,-30.0000002942293));
#880=CARTESIAN_POINT('Origin',(78.9883997418912,0.,-30.0000002942293));
#881=CARTESIAN_POINT('Origin',(-30.4116002581087,0.,54.8999997057707));
#882=CARTESIAN_POINT('',(-31.8616002581087,0.,54.8999997057707));
#883=CARTESIAN_POINT('',(-31.8616002581087,0.,54.8999997057707));
#884=CARTESIAN_POINT('Origin',(-30.4116002581087,0.,54.8999997057707));
#885=CARTESIAN_POINT('Origin',(78.9883997418839,0.,54.8999997057711));
#886=CARTESIAN_POINT('',(77.5383997418839,0.,54.8999997057711));
#887=CARTESIAN_POINT('',(77.5383997418839,0.,54.8999997057711));
#888=CARTESIAN_POINT('Origin',(78.9883997418839,0.,54.8999997057711));
#889=CARTESIAN_POINT('Origin',(-35.4116002581087,0.,-35.0000002942293));
#890=CARTESIAN_POINT('',(-35.4116002581088,0.,59.8999997057707));
#891=CARTESIAN_POINT('Origin',(83.9883997418913,0.,59.8999997057707));
#892=CARTESIAN_POINT('',(83.9883997418913,0.,-35.0000002942293));
#893=CARTESIAN_POINT('Origin',(24.2883997418913,0.,12.4499997057707));
#894=UNCERTAINTY_MEASURE_WITH_UNIT(LENGTH_MEASURE(0.01),#898,
'DISTANCE_ACCURACY_VALUE',
'Maximum model space distance between geometric entities at asserted c
onnectivities');
#895=UNCERTAINTY_MEASURE_WITH_UNIT(LENGTH_MEASURE(0.01),#898,
'DISTANCE_ACCURACY_VALUE',
'Maximum model space distance between geometric entities at asserted c
onnectivities');
#896=(
GEOMETRIC_REPRESENTATION_CONTEXT(3)
GLOBAL_UNCERTAINTY_ASSIGNED_CONTEXT((#894))
GLOBAL_UNIT_ASSIGNED_CONTEXT((#898,#900,#901))
REPRESENTATION_CONTEXT('','3D')
);
#897=(
GEOMETRIC_REPRESENTATION_CONTEXT(3)
GLOBAL_UNCERTAINTY_ASSIGNED_CONTEXT((#895))
GLOBAL_UNIT_ASSIGNED_CONTEXT((#898,#900,#901))
REPRESENTATION_CONTEXT('','3D')
);
#898=(
LENGTH_UNIT()
NAMED_UNIT(*)
SI_UNIT(.MILLI.,.METRE.)
);
#899=(
LENGTH_UNIT()
NAMED_UNIT(*)
SI_UNIT($,.METRE.)
);
#900=(
NAMED_UNIT(*)
PLANE_ANGLE_UNIT()
SI_UNIT($,.RADIAN.)
);
#901=(
NAMED_UNIT(*)
SI_UNIT($,.STERADIAN.)
SOLID_ANGLE_UNIT()
);
#902=SHAPE_DEFINITION_REPRESENTATION(#903,#904);
#903=PRODUCT_DEFINITION_SHAPE('',$,#906);
#904=SHAPE_REPRESENTATION('',(#542),#896);
#905=PRODUCT_DEFINITION_CONTEXT('part definition',#910,'design');
#906=PRODUCT_DEFINITION('2026-08-16-01-27-19-840',
'3D printing macropad',#907,#905);
#907=PRODUCT_DEFINITION_FORMATION('',$,#912);
#908=PRODUCT_RELATED_PRODUCT_CATEGORY('3D printing macropad',
'3D printing macropad',(#912));
#909=APPLICATION_PROTOCOL_DEFINITION('international standard',
'automotive_design',2009,#910);
#910=APPLICATION_CONTEXT(
'Core Data for Automotive Mechanical Design Process');
#911=PRODUCT_CONTEXT('part definition',#910,'mechanical');
#912=PRODUCT('2026-08-16-01-27-19-840','3D printing macropad',$,(#911));
#913=PRESENTATION_STYLE_ASSIGNMENT((#917));
#914=PRESENTATION_STYLE_ASSIGNMENT((#918));
#915=PRESENTATION_STYLE_ASSIGNMENT((#919));
#916=PRESENTATION_STYLE_ASSIGNMENT((#920));
#917=SURFACE_STYLE_USAGE(.BOTH.,#921);
#918=SURFACE_STYLE_USAGE(.BOTH.,#922);
#919=SURFACE_STYLE_USAGE(.BOTH.,#923);
#920=SURFACE_STYLE_USAGE(.BOTH.,#924);
#921=SURFACE_SIDE_STYLE('',(#925));
#922=SURFACE_SIDE_STYLE('',(#926));
#923=SURFACE_SIDE_STYLE('',(#927));
#924=SURFACE_SIDE_STYLE('',(#928));
#925=SURFACE_STYLE_FILL_AREA(#929);
#926=SURFACE_STYLE_FILL_AREA(#930);
#927=SURFACE_STYLE_FILL_AREA(#931);
#928=SURFACE_STYLE_FILL_AREA(#932);
#929=FILL_AREA_STYLE('Steel - Satin',(#933));
#930=FILL_AREA_STYLE('Aluminum - Anodized Glossy (Red)',(#934));
#931=FILL_AREA_STYLE('Opaque(80,124,105)',(#935));
#932=FILL_AREA_STYLE('Opaque(219,188,126)',(#936));
#933=FILL_AREA_STYLE_COLOUR('Steel - Satin',#937);
#934=FILL_AREA_STYLE_COLOUR('Aluminum - Anodized Glossy (Red)',#938);
#935=FILL_AREA_STYLE_COLOUR('Opaque(80,124,105)',#939);
#936=FILL_AREA_STYLE_COLOUR('Opaque(219,188,126)',#940);
#937=COLOUR_RGB('Steel - Satin',0.627450980392157,0.627450980392157,0.627450980392157);
#938=COLOUR_RGB('Aluminum - Anodized Glossy (Red)',0.854901960784314,0.349019607843137,
0.349019607843137);
#939=COLOUR_RGB('Opaque(80,124,105)',0.313725490196078,0.486274509803922,
0.411764705882353);
#940=COLOUR_RGB('Opaque(219,188,126)',0.858823529411765,0.737254901960784,
0.494117647058824);
ENDSEC;
END-ISO-10303-21;
